<svg id="Layer_1" data-name="Layer 1" xmlns="http://www.w3.org/2000/svg" viewBox="0 0 478.04 478.05"><defs><style>.cls-1{fill:#fff;}</style></defs><path class="cls-1" d="M256.68,16.74C124.52,16.74,17.39,123.88,17.39,256a239.3,239.3,0,0,0,70.08,169.2c93.76,93.15,245.28,92.66,338.42-1.1,92.72-93.33,92.72-244,0-337.32A237.72,237.72,0,0,0,256.68,16.74ZM246.78,49,146,224.24l-54-94A207.11,207.11,0,0,1,246.79,49Zm56.44,127,45.91,79.42-46.2,80.79h-92.6l-45.86-79.86L210.66,176ZM72.65,160.7,173.44,336.22H65.53A207.08,207.08,0,0,1,72.65,160.7Zm9.79,207.51h202.2l-53.49,93.55A207.61,207.61,0,0,1,82.44,368.22Zm184.82,94.85L367.67,287.48l54.17,93.69a207.19,207.19,0,0,1-154.58,81.9ZM441.12,350.6,340.19,176H447.91A207.14,207.14,0,0,1,441.12,350.6ZM229.06,144l53.83-93.62A207.62,207.62,0,0,1,431,144Z" transform="translate(-17.39 -16.74)"/></svg>