<svg id="Layer_1" data-name="Layer 1" xmlns="http://www.w3.org/2000/svg" viewBox="0 0 24 24"><defs><style>.cls-1,.cls-2{fill:#fff;}.cls-1{fill-opacity:0;}</style></defs><rect class="cls-1" width="24" height="24"/><path class="cls-2" d="M20,11a1,1,0,0,0-1,1v6a1,1,0,0,1-1,1H6a1,1,0,0,1-1-1V6A1,1,0,0,1,6,5h6a1,1,0,0,0,0-2H6A3,3,0,0,0,3,6V18a3,3,0,0,0,3,3H18a3,3,0,0,0,3-3V12A1,1,0,0,0,20,11Z" transform="translate(0 0)"/><path class="cls-2" d="M16,5h1.58l-6.29,6.28a1,1,0,0,0,0,1.41h0a1,1,0,0,0,1.41,0h0L19,6.42V8a1,1,0,0,0,2,0V4a1,1,0,0,0-1-1H16a1,1,0,0,0,0,2Z" transform="translate(0 0)"/></svg>