<svg id="Layer_1" data-name="Layer 1" xmlns="http://www.w3.org/2000/svg" viewBox="0 0 24 24"><defs><style>.cls-1,.cls-2{fill:#fff;}.cls-1{fill-opacity:0;}</style></defs><rect class="cls-1" width="24" height="24"/><path class="cls-2" d="M16,11H10.34l1.25-1.31a1,1,0,0,0-1.45-1.38h0l-2.86,3-.09.13a.72.72,0,0,0-.11.19.67.67,0,0,0-.06.28L7,12a1,1,0,0,0,.29.7l3,3a1,1,0,0,0,1.41,0h0a1,1,0,0,0,0-1.41h0L10.41,13H16a1,1,0,0,0,0-2Z" transform="translate(0 0)"/><path class="cls-2" d="M12,2A10,10,0,1,0,22,12,10,10,0,0,0,12,2Zm0,18a8,8,0,1,1,8-8A8,8,0,0,1,12,20Z" transform="translate(0 0)"/></svg>